<svg aria-hidden="true" style="position: absolute; width: 0; height: 0; overflow: hidden;" version="1.1" xmlns="http://www.w3.org/2000/svg" xmlns:xlink="http://www.w3.org/1999/xlink">
<defs>
<symbol id="icon-arrow_back" viewBox="0 0 32 32">
<path stroke-linejoin="miter" stroke-linecap="butt" stroke-miterlimit="4" stroke-width="1.3333" d="M16.010 6.249c0.114 0 0.212 0.035 0.322 0.145 0.11 0.115 0.145 0.217 0.145 0.332-0 0.116-0.035 0.214-0.145 0.324l-8.482 8.482h17.88c0.162 0 0.262 0.047 0.348 0.132 0.083 0.082 0.129 0.177 0.129 0.337s-0.046 0.255-0.129 0.337c-0.085 0.084-0.186 0.131-0.348 0.132h-17.88l8.474 8.473c0.11 0.11 0.147 0.212 0.148 0.335v0.001c0.001 0.089-0.019 0.167-0.074 0.246l-0.069 0.082c-0.107 0.108-0.204 0.143-0.323 0.142-0.126-0.001-0.23-0.041-0.341-0.151l-9.264-9.264c-0.071-0.072-0.105-0.128-0.121-0.167v-0.001c-0.020-0.048-0.031-0.102-0.031-0.165s0.012-0.116 0.031-0.163v-0.001c0.016-0.038 0.050-0.095 0.121-0.167l9.267-9.267c0.121-0.116 0.227-0.152 0.342-0.152z"></path>
</symbol>
<symbol id="icon-arrow_forward" viewBox="0 0 32 32">
<path stroke-linejoin="miter" stroke-linecap="butt" stroke-miterlimit="4" stroke-width="1.3333" d="M15.993 6.253c0.095 0.001 0.177 0.023 0.259 0.081l0.082 0.070 9.264 9.264c0.071 0.072 0.105 0.128 0.121 0.167v0.001c0.020 0.048 0.031 0.102 0.031 0.165s-0.012 0.116-0.031 0.163v0.001c-0.016 0.038-0.050 0.094-0.121 0.167l-9.272 9.264c-0.122 0.12-0.227 0.155-0.337 0.155-0.108-0-0.204-0.033-0.315-0.147l-0.007-0.007-0.069-0.081c-0.056-0.079-0.075-0.157-0.075-0.243s0.020-0.163 0.075-0.242l0.069-0.081 8.482-8.482h-17.88c-0.163-0-0.259-0.047-0.34-0.128h-0.001c-0.081-0.081-0.128-0.179-0.128-0.341s0.046-0.26 0.128-0.341h0.001c0.081-0.081 0.177-0.127 0.34-0.128h17.88l-8.474-8.474c-0.082-0.082-0.124-0.16-0.141-0.246l-0.008-0.090c-0.001-0.12 0.034-0.218 0.141-0.326l0.001-0.001c0.107-0.107 0.205-0.143 0.324-0.142z"></path>
</symbol>
<symbol id="icon-bookmark" viewBox="0 0 32 32">
<path d="M16 24.223l-6.358 2.72c-0.757 0.326-1.475 0.265-2.155-0.184s-1.020-1.084-1.020-1.905v-18.95c0-0.616 0.225-1.149 0.676-1.601s0.982-0.678 1.595-0.678h14.523c0.616 0 1.149 0.226 1.601 0.678s0.678 0.985 0.678 1.601v18.95c0 0.821-0.341 1.456-1.024 1.905s-1.402 0.51-2.159 0.184l-6.358-2.72zM16 21.794l7.262 3.061v-18.95h-14.523v18.95l7.262-3.061zM16 5.905v0z"></path>
</symbol>
<symbol id="icon-chevron_left" viewBox="0 0 32 32">
<path stroke-linejoin="miter" stroke-linecap="butt" stroke-miterlimit="4" stroke-width="1.3333" d="M18.716 8.865c0.134 0 0.237 0.041 0.341 0.145s0.145 0.207 0.145 0.341-0.040 0.237-0.145 0.341l-6.276 6.276 6.276 6.275c0.104 0.104 0.133 0.193 0.129 0.301-0.005 0.125-0.047 0.233-0.161 0.348-0.104 0.104-0.207 0.146-0.341 0.146s-0.237-0.042-0.341-0.146l-6.592-6.591c-0.036-0.036-0.063-0.069-0.082-0.096l-0.039-0.070c-0.020-0.047-0.031-0.101-0.031-0.165 0-0.032 0.002-0.063 0.008-0.090l0.023-0.077c0.016-0.038 0.049-0.094 0.121-0.167l6.626-6.625c0.104-0.104 0.206-0.144 0.34-0.145z"></path>
</symbol>
<symbol id="icon-chevron_right" viewBox="0 0 32 32">
<path stroke-linejoin="miter" stroke-linecap="butt" stroke-miterlimit="4" stroke-width="1.3333" d="M12.516 8.897c0.134 0 0.237 0.041 0.341 0.145l6.592 6.592c0.072 0.072 0.105 0.128 0.121 0.165v0.001c0.020 0.047 0.031 0.1 0.031 0.165s-0.012 0.118-0.031 0.165v0.001c-0.016 0.037-0.049 0.093-0.121 0.165l-6.625 6.625c-0.104 0.104-0.193 0.133-0.301 0.129-0.125-0.005-0.233-0.047-0.348-0.161-0.104-0.104-0.146-0.207-0.146-0.341s0.042-0.237 0.146-0.341l6.242-6.242-6.276-6.276c-0.104-0.104-0.133-0.192-0.129-0.299 0.005-0.126 0.048-0.234 0.163-0.349 0.104-0.104 0.206-0.144 0.34-0.145z"></path>
</symbol>
<symbol id="icon-eco" viewBox="0 0 32 32">
<path d="M6.964 26.302c-0.995-1.021-1.771-2.202-2.328-3.542s-0.835-2.71-0.835-4.11c0-1.638 0.289-3.141 0.866-4.51s1.438-2.625 2.582-3.769c1.431-1.426 3.471-2.451 6.119-3.076s5.899-0.893 9.75-0.803c0.498 0.022 0.951 0.123 1.36 0.303s0.779 0.429 1.11 0.75c0.325 0.325 0.582 0.692 0.772 1.101s0.295 0.865 0.315 1.368c0.061 1.926 0.036 3.704-0.075 5.336s-0.328 3.117-0.65 4.456c-0.322 1.338-0.743 2.53-1.264 3.573s-1.148 1.934-1.883 2.671c-1.133 1.138-2.367 2.002-3.701 2.591s-2.758 0.883-4.272 0.883c-1.564 0-2.995-0.26-4.294-0.779s-2.49-1.334-3.571-2.443zM10.573 26.095c0.559 0.378 1.204 0.664 1.936 0.859s1.503 0.292 2.316 0.292c1.168 0 2.302-0.243 3.402-0.729s2.097-1.188 2.992-2.105c0.637-0.643 1.168-1.477 1.593-2.502s0.763-2.208 1.013-3.549c0.251-1.341 0.413-2.819 0.486-4.436s0.068-3.334-0.016-5.153c-2.073-0.050-3.932-0.023-5.577 0.079s-3.097 0.287-4.355 0.554-2.338 0.607-3.239 1.021c-0.9 0.414-1.632 0.913-2.194 1.497-0.917 0.934-1.623 1.933-2.117 2.996s-0.741 2.14-0.741 3.231c0 1.044 0.221 2.144 0.663 3.301s0.998 2.089 1.666 2.794c1.144-2.146 2.531-4.075 4.159-5.787s3.386-3.081 5.273-4.108c-1.912 1.672-3.465 3.478-4.66 5.417s-2.062 4.048-2.6 6.328z"></path>
</symbol>
<symbol id="icon-edit" viewBox="0 0 32 32">
<path d="M6.064 25.928h1.475l15.327-15.294-1.459-1.467-15.343 15.302v1.459zM4.936 28.199c-0.326 0-0.597-0.108-0.812-0.323s-0.323-0.486-0.323-0.812v-2.561c0-0.304 0.062-0.601 0.187-0.891s0.289-0.537 0.493-0.742l18.471-18.446c0.183-0.188 0.404-0.335 0.661-0.441s0.525-0.158 0.803-0.158c0.255 0 0.51 0.053 0.765 0.158s0.491 0.25 0.707 0.433l1.73 1.706c0.205 0.216 0.355 0.453 0.449 0.711s0.141 0.517 0.141 0.777c0 0.26-0.053 0.524-0.158 0.79s-0.25 0.494-0.433 0.682l-18.471 18.438c-0.21 0.204-0.458 0.369-0.746 0.493s-0.583 0.187-0.887 0.187h-2.577zM22.14 9.893l-0.733-0.725 1.459 1.467-0.725-0.741z"></path>
</symbol>
<symbol id="icon-facebook" viewBox="0 0 32 32">
<path d="M29.333 16.405c0-7.409-5.969-13.415-13.333-13.415s-13.333 6.006-13.333 13.415c0 6.696 4.876 12.245 11.25 13.252v-9.374h-3.385v-3.878h3.385v-2.955c0-3.362 1.991-5.219 5.036-5.219 1.459 0 2.985 0.262 2.985 0.262v3.301h-1.681c-1.656 0-2.173 1.034-2.173 2.095v2.516h3.698l-0.591 3.878h-3.107v9.374c6.374-1.006 11.25-6.556 11.25-13.252z"></path>
</symbol>
<symbol id="icon-favicon_1" viewBox="0 0 32 32">
<path fill="#def2de" style="fill: var(--color1, #def2de)" d="M0 0h32v32h-32v-32z"></path>
<path fill="#1b391b" style="fill: var(--color2, #1b391b)" d="M9.223 23.727c-0.746-0.766-1.328-1.651-1.746-2.656s-0.627-2.032-0.627-3.082c0-1.229 0.216-2.356 0.649-3.382s1.079-1.969 1.937-2.826c1.073-1.069 2.603-1.838 4.59-2.307s4.424-0.67 7.313-0.603c0.373 0.017 0.713 0.092 1.020 0.227s0.584 0.322 0.832 0.563c0.243 0.244 0.436 0.519 0.579 0.826s0.221 0.649 0.236 1.026c0.046 1.444 0.027 2.778-0.056 4.002s-0.246 2.338-0.488 3.342c-0.242 1.004-0.558 1.897-0.948 2.68s-0.861 1.45-1.413 2.003c-0.85 0.854-1.775 1.502-2.776 1.943s-2.069 0.662-3.204 0.662c-1.173 0-2.246-0.195-3.22-0.584s-1.867-1-2.678-1.832zM11.93 23.571c0.419 0.283 0.903 0.498 1.452 0.644s1.128 0.219 1.737 0.219c0.876 0 1.726-0.182 2.551-0.547s1.573-0.891 2.244-1.579c0.478-0.482 0.876-1.107 1.195-1.876s0.572-1.656 0.76-2.662c0.188-1.006 0.309-2.115 0.364-3.327s0.051-2.501-0.012-3.865c-1.555-0.037-2.949-0.018-4.183 0.059s-2.322 0.216-3.267 0.415-1.754 0.455-2.429 0.765c-0.675 0.31-1.224 0.684-1.645 1.123-0.688 0.701-1.217 1.45-1.588 2.247s-0.556 1.605-0.556 2.423c0 0.783 0.166 1.608 0.498 2.476s0.748 1.566 1.249 2.096c0.858-1.61 1.898-3.056 3.119-4.34s2.54-2.311 3.955-3.081c-1.434 1.254-2.599 2.608-3.495 4.063s-1.546 3.036-1.95 4.746z"></path>
</symbol>
<symbol id="icon-instagram" viewBox="0 0 32 32">
<path d="M16.007 6.488c3.206 0 3.585 0.014 4.846 0.071 1.172 0.052 1.804 0.248 2.227 0.412 0.558 0.216 0.961 0.478 1.378 0.895 0.422 0.422 0.679 0.82 0.9 1.378 0.164 0.422 0.361 1.059 0.412 2.226 0.056 1.266 0.071 1.645 0.071 4.847s-0.014 3.585-0.071 4.847c-0.052 1.172-0.248 1.804-0.412 2.227-0.216 0.558-0.478 0.961-0.895 1.377-0.422 0.422-0.82 0.679-1.377 0.9-0.422 0.164-1.060 0.361-2.227 0.412-1.266 0.056-1.645 0.071-4.847 0.071s-3.585-0.014-4.847-0.071c-1.172-0.052-1.804-0.248-2.226-0.412-0.558-0.216-0.961-0.478-1.378-0.895-0.422-0.422-0.679-0.82-0.9-1.378-0.164-0.422-0.361-1.060-0.412-2.226-0.056-1.266-0.071-1.645-0.071-4.847s0.014-3.585 0.071-4.847c0.052-1.172 0.248-1.804 0.412-2.226 0.216-0.558 0.478-0.961 0.895-1.378 0.422-0.422 0.82-0.679 1.378-0.9 0.422-0.164 1.059-0.361 2.226-0.412 1.261-0.056 1.641-0.071 4.847-0.071h0.001zM16.007 4.328c-3.258 0-3.665 0.014-4.945 0.071-1.275 0.056-2.151 0.262-2.91 0.558-0.792 0.309-1.462 0.717-2.127 1.387-0.67 0.666-1.078 1.336-1.387 2.123-0.295 0.764-0.502 1.636-0.558 2.91-0.056 1.285-0.071 1.692-0.071 4.949s0.014 3.665 0.071 4.945c0.056 1.275 0.262 2.151 0.558 2.91 0.31 0.792 0.717 1.462 1.387 2.127 0.665 0.665 1.336 1.078 2.123 1.383 0.764 0.295 1.636 0.502 2.91 0.558 1.279 0.056 1.687 0.071 4.945 0.071s3.665-0.014 4.945-0.071c1.275-0.056 2.151-0.262 2.91-0.558 0.787-0.305 1.458-0.717 2.123-1.383s1.078-1.336 1.383-2.123c0.295-0.764 0.502-1.635 0.558-2.91 0.056-1.279 0.070-1.687 0.070-4.945s-0.014-3.665-0.070-4.945c-0.056-1.275-0.263-2.151-0.558-2.91-0.295-0.797-0.703-1.467-1.373-2.133-0.665-0.665-1.336-1.078-2.123-1.383-0.764-0.295-1.636-0.502-2.91-0.558-1.284-0.061-1.692-0.075-4.949-0.075l-0.001 0.001z"></path>
<path d="M16.007 10.163c-3.402 0-6.163 2.76-6.163 6.163s2.76 6.163 6.163 6.163c3.403 0 6.163-2.76 6.163-6.163s-2.76-6.163-6.163-6.163zM16.007 20.324c-2.208 0-3.998-1.79-3.998-3.998s1.79-3.998 3.998-3.998c2.208 0 3.998 1.79 3.998 3.998s-1.79 3.998-3.998 3.998z"></path>
<path d="M23.851 9.919c0 0.795-0.644 1.439-1.439 1.439s-1.439-0.644-1.439-1.439 0.644-1.439 1.439-1.439c0.795 0 1.439 0.644 1.439 1.439z"></path>
</symbol>
<symbol id="icon-keyboard_arrow_down" viewBox="0 0 32 32">
<path stroke-linejoin="miter" stroke-linecap="butt" stroke-miterlimit="4" stroke-width="1.3333" d="M9.449 12.031c0.134 0 0.237 0.041 0.341 0.145l6.208 6.244 6.243-6.244c0.104-0.103 0.192-0.133 0.299-0.129 0.126 0.005 0.234 0.048 0.349 0.163 0.104 0.104 0.145 0.207 0.145 0.341s-0.041 0.236-0.145 0.34l-6.559 6.559c-0.072 0.072-0.129 0.107-0.167 0.122-0.047 0.020-0.101 0.031-0.165 0.031-0.033 0-0.062-0.004-0.090-0.009l-0.077-0.022-0.070-0.040c-0.028-0.019-0.059-0.046-0.095-0.082l-6.592-6.591c-0.098-0.098-0.133-0.191-0.129-0.318 0.005-0.143 0.053-0.255 0.163-0.365 0.104-0.104 0.206-0.144 0.34-0.145z"></path>
</symbol>
<symbol id="icon-keyboard_arrow_up" viewBox="0 0 32 32">
<path stroke-linejoin="miter" stroke-linecap="butt" stroke-miterlimit="4" stroke-width="1.3333" d="M15.999 11.605c0.125 0 0.227 0.038 0.333 0.145l6.591 6.592c0.109 0.109 0.145 0.208 0.145 0.324s-0.035 0.215-0.145 0.324c-0.104 0.104-0.207 0.145-0.341 0.145s-0.236-0.041-0.34-0.145l-0.001-0.001-6.244-6.207-6.241 6.241c-0.104 0.104-0.192 0.133-0.299 0.129-0.126-0.005-0.234-0.047-0.349-0.161-0.104-0.104-0.145-0.207-0.145-0.341s0.040-0.237 0.145-0.341l6.559-6.559c0.107-0.107 0.207-0.144 0.332-0.145z"></path>
</symbol>
<symbol id="icon-logo" viewBox="0 0 108 32">
<path fill="#1b391b" style="fill: var(--color2, #1b391b)" d="M4.643 22.424c-0.663-0.681-1.181-1.468-1.552-2.361s-0.557-1.806-0.557-2.74c0-1.092 0.192-2.094 0.577-3.006s0.959-1.75 1.721-2.512c0.954-0.95 2.314-1.634 4.080-2.051s3.933-0.595 6.5-0.536c0.332 0.015 0.634 0.082 0.906 0.202s0.519 0.286 0.74 0.5c0.216 0.217 0.388 0.462 0.515 0.734s0.196 0.577 0.21 0.912c0.041 1.284 0.024 2.469-0.050 3.557s-0.218 2.078-0.433 2.971c-0.215 0.892-0.496 1.686-0.843 2.382s-0.765 1.289-1.256 1.781c-0.755 0.759-1.578 1.335-2.468 1.727s-1.839 0.588-2.848 0.588c-1.042 0-1.997-0.173-2.862-0.52s-1.66-0.889-2.381-1.629zM7.049 22.285c0.373 0.252 0.803 0.443 1.291 0.572s1.002 0.195 1.544 0.195c0.779 0 1.535-0.162 2.268-0.486s1.398-0.792 1.995-1.404c0.425-0.428 0.779-0.984 1.062-1.668s0.508-1.472 0.676-2.366c0.167-0.894 0.275-1.88 0.324-2.957s0.045-2.223-0.011-3.436c-1.382-0.033-2.621-0.016-3.718 0.053s-2.064 0.192-2.904 0.369-1.559 0.405-2.159 0.68c-0.6 0.276-1.088 0.608-1.462 0.998-0.612 0.623-1.082 1.289-1.412 1.998s-0.494 1.427-0.494 2.154c0 0.696 0.147 1.43 0.442 2.201s0.665 1.392 1.111 1.863c0.763-1.431 1.687-2.717 2.773-3.858s2.258-2.054 3.516-2.739c-1.275 1.115-2.31 2.318-3.107 3.611s-1.374 2.699-1.733 4.218z"></path>
<path fill="#1b391b" style="fill: var(--color2, #1b391b)" d="M26.015 13.333v-11.165h9.618v11.165h-1.563v-10.192l0.383 0.415h-7.257l0.399-0.415v10.192h-1.579zM43.182 13.429c-0.702 0-1.345-0.16-1.93-0.479-0.574-0.33-1.037-0.813-1.388-1.451-0.34-0.638-0.511-1.435-0.511-2.392s0.165-1.755 0.495-2.393c0.34-0.638 0.797-1.117 1.372-1.436 0.585-0.319 1.239-0.479 1.962-0.479 0.829 0 1.563 0.181 2.201 0.542s1.143 0.867 1.515 1.515c0.372 0.638 0.558 1.388 0.558 2.249s-0.186 1.616-0.558 2.265-0.877 1.154-1.515 1.515c-0.638 0.361-1.372 0.542-2.201 0.542zM38.7 16.428v-11.548h1.467v2.281l-0.096 1.962 0.16 1.962v5.343h-1.531zM43.054 12.089c0.542 0 1.026-0.122 1.451-0.367 0.436-0.245 0.776-0.59 1.021-1.037 0.255-0.457 0.383-0.984 0.383-1.579 0-0.606-0.128-1.127-0.383-1.563-0.245-0.447-0.585-0.792-1.021-1.037-0.425-0.245-0.909-0.367-1.451-0.367-0.532 0-1.015 0.122-1.451 0.367-0.425 0.245-0.766 0.59-1.021 1.037-0.245 0.436-0.367 0.957-0.367 1.563 0 0.595 0.122 1.122 0.367 1.579 0.255 0.447 0.595 0.792 1.021 1.037 0.436 0.245 0.92 0.367 1.451 0.367zM49.522 13.333v-8.454h1.531v6.157l5.184-6.157h1.388v8.454h-1.531v-6.157l-5.168 6.157h-1.404zM64.919 13.429c-0.702 0-1.345-0.16-1.93-0.479-0.574-0.33-1.037-0.813-1.388-1.451-0.34-0.638-0.51-1.435-0.51-2.392s0.165-1.755 0.494-2.393c0.34-0.638 0.797-1.117 1.372-1.436 0.585-0.319 1.239-0.479 1.962-0.479 0.829 0 1.563 0.181 2.201 0.542s1.143 0.867 1.515 1.515c0.372 0.638 0.558 1.388 0.558 2.249s-0.186 1.616-0.558 2.265-0.877 1.154-1.515 1.515c-0.638 0.361-1.372 0.542-2.201 0.542zM60.437 16.428v-11.548h1.467v2.281l-0.096 1.962 0.159 1.962v5.343h-1.531zM64.792 12.089c0.542 0 1.026-0.122 1.451-0.367 0.436-0.245 0.776-0.59 1.021-1.037 0.255-0.457 0.383-0.984 0.383-1.579 0-0.606-0.128-1.127-0.383-1.563-0.245-0.447-0.585-0.792-1.021-1.037-0.425-0.245-0.909-0.367-1.451-0.367-0.532 0-1.016 0.122-1.451 0.367-0.425 0.245-0.766 0.59-1.021 1.037-0.245 0.436-0.367 0.957-0.367 1.563 0 0.595 0.122 1.122 0.367 1.579 0.255 0.447 0.595 0.792 1.021 1.037 0.436 0.245 0.92 0.367 1.451 0.367zM74.88 13.429c-0.851 0-1.606-0.186-2.265-0.558s-1.18-0.883-1.563-1.531c-0.383-0.659-0.574-1.404-0.574-2.233 0-0.84 0.191-1.584 0.574-2.233s0.904-1.154 1.563-1.515c0.659-0.372 1.414-0.558 2.265-0.558 0.84 0 1.59 0.186 2.249 0.558 0.67 0.362 1.191 0.867 1.563 1.515 0.383 0.638 0.574 1.382 0.574 2.233 0 0.84-0.191 1.584-0.574 2.233-0.372 0.649-0.893 1.159-1.563 1.531-0.659 0.372-1.409 0.558-2.249 0.558zM74.88 12.089c0.542 0 1.026-0.122 1.451-0.367 0.436-0.245 0.776-0.59 1.021-1.037 0.245-0.457 0.367-0.984 0.367-1.579 0-0.606-0.122-1.127-0.367-1.563-0.245-0.447-0.585-0.792-1.021-1.037-0.425-0.245-0.909-0.367-1.451-0.367s-1.026 0.122-1.451 0.367c-0.425 0.245-0.766 0.59-1.021 1.037-0.255 0.436-0.383 0.957-0.383 1.563 0 0.595 0.128 1.122 0.383 1.579 0.255 0.447 0.595 0.792 1.021 1.037s0.909 0.367 1.451 0.367zM87.029 12.616v-6.396h-3.669l-0.080 1.627c-0.021 0.532-0.058 1.047-0.112 1.547-0.043 0.489-0.117 0.941-0.223 1.356-0.096 0.415-0.239 0.755-0.431 1.021s-0.447 0.431-0.766 0.495l-1.515-0.271c0.33 0.011 0.595-0.096 0.797-0.319 0.202-0.234 0.356-0.553 0.463-0.957 0.117-0.404 0.202-0.861 0.255-1.372 0.053-0.521 0.096-1.058 0.128-1.611l0.128-2.855h6.555v7.736h-1.531zM79.899 15.295v-3.302h9.953v3.302h-1.436v-1.962h-7.066v1.962h-1.451zM91.688 13.333v-8.454h1.531v3.589h4.817v-3.589h1.532v8.454h-1.532v-3.541h-4.817v3.541h-1.531zM102.385 13.333v-8.454h1.532v8.454h-1.532zM103.15 3.253c-0.298 0-0.548-0.096-0.749-0.287-0.191-0.191-0.287-0.425-0.287-0.702 0-0.287 0.096-0.526 0.287-0.718 0.202-0.191 0.452-0.287 0.749-0.287s0.542 0.096 0.734 0.287c0.202 0.181 0.303 0.409 0.303 0.686 0 0.287-0.096 0.532-0.287 0.734-0.192 0.191-0.442 0.287-0.75 0.287zM26.015 29.333v-11.165h1.308l5.008 8.438h-0.702l4.945-8.438h1.308l0.016 11.165h-1.531l-0.016-8.757h0.367l-4.402 7.401h-0.734l-4.434-7.401h0.399v8.757h-1.531zM46.142 29.333v-1.786l-0.080-0.335v-3.047c0-0.649-0.191-1.148-0.574-1.499-0.372-0.361-0.936-0.542-1.691-0.542-0.5 0-0.989 0.085-1.467 0.255-0.478 0.16-0.883 0.378-1.212 0.654l-0.638-1.148c0.436-0.351 0.957-0.617 1.563-0.797 0.617-0.191 1.26-0.287 1.93-0.287 1.159 0 2.052 0.282 2.68 0.845s0.941 1.425 0.941 2.584v5.104h-1.451zM43.367 29.429c-0.627 0-1.18-0.106-1.659-0.319-0.468-0.213-0.829-0.505-1.085-0.877-0.255-0.383-0.383-0.814-0.383-1.292 0-0.457 0.106-0.872 0.319-1.244 0.223-0.372 0.58-0.67 1.069-0.893 0.5-0.223 1.17-0.335 2.010-0.335h2.68v1.101h-2.616c-0.766 0-1.281 0.128-1.547 0.383s-0.399 0.564-0.399 0.925c0 0.415 0.165 0.75 0.495 1.005 0.33 0.245 0.787 0.367 1.372 0.367 0.574 0 1.074-0.128 1.499-0.383 0.436-0.255 0.75-0.627 0.941-1.117l0.303 1.053c-0.202 0.5-0.558 0.898-1.069 1.196-0.51 0.287-1.154 0.431-1.93 0.431zM50.192 29.333v-8.454h1.531v3.589h4.817v-3.589h1.531v8.454h-1.531v-3.541h-4.817v3.541h-1.531zM66.663 28.616v-6.396h-3.669l-0.080 1.627c-0.021 0.532-0.059 1.047-0.112 1.547-0.042 0.489-0.117 0.941-0.223 1.356-0.096 0.415-0.239 0.755-0.431 1.021s-0.447 0.431-0.766 0.494l-1.515-0.271c0.33 0.011 0.595-0.096 0.797-0.319 0.202-0.234 0.356-0.553 0.463-0.957 0.117-0.404 0.202-0.861 0.255-1.372 0.053-0.521 0.096-1.058 0.128-1.611l0.128-2.855h6.556v7.736h-1.531zM59.533 31.295v-3.302h9.953v3.302h-1.435v-1.962h-7.066v1.962h-1.451zM75.803 29.429c-0.702 0-1.345-0.16-1.93-0.479-0.574-0.33-1.037-0.813-1.388-1.451-0.34-0.638-0.51-1.435-0.51-2.392s0.165-1.755 0.495-2.393c0.34-0.638 0.797-1.117 1.372-1.436 0.585-0.319 1.239-0.479 1.962-0.479 0.829 0 1.563 0.181 2.201 0.542s1.143 0.867 1.515 1.515c0.372 0.638 0.558 1.388 0.558 2.249s-0.186 1.616-0.558 2.265-0.877 1.154-1.515 1.515c-0.638 0.361-1.372 0.542-2.201 0.542zM71.321 32.428v-11.548h1.467v2.281l-0.096 1.962 0.159 1.962v5.343h-1.531zM75.676 28.089c0.542 0 1.026-0.122 1.451-0.367 0.436-0.245 0.776-0.59 1.021-1.037 0.255-0.457 0.383-0.984 0.383-1.579 0-0.606-0.128-1.127-0.383-1.563-0.245-0.447-0.585-0.792-1.021-1.037-0.425-0.245-0.909-0.367-1.451-0.367-0.532 0-1.015 0.122-1.451 0.367-0.425 0.245-0.766 0.59-1.021 1.037-0.245 0.436-0.367 0.957-0.367 1.563 0 0.595 0.122 1.122 0.367 1.579 0.255 0.447 0.595 0.792 1.021 1.037 0.436 0.245 0.92 0.367 1.451 0.367zM82.143 29.333v-8.454h1.531v6.157l5.184-6.157h1.387v8.454h-1.531v-6.157l-5.168 6.157h-1.404z"></path>
</symbol>
<symbol id="icon-logout" viewBox="0 0 32 32">
<path fill="#1b391b" style="fill: var(--color2, #1b391b)" d="M6.072 28.199c-0.613 0-1.145-0.225-1.595-0.676s-0.676-0.982-0.676-1.595v-19.857c0-0.616 0.225-1.149 0.676-1.601s0.982-0.678 1.595-0.678h8.807c0.321 0 0.59 0.111 0.808 0.334s0.327 0.495 0.327 0.816c0 0.322-0.109 0.59-0.327 0.806s-0.487 0.323-0.808 0.323h-8.807v19.857h8.807c0.321 0 0.59 0.11 0.808 0.329s0.327 0.49 0.327 0.812c0 0.322-0.109 0.591-0.327 0.806s-0.487 0.323-0.808 0.323h-8.807zM23.856 17.136h-10.768c-0.32 0-0.59-0.11-0.808-0.329s-0.327-0.49-0.327-0.812c0-0.322 0.109-0.591 0.327-0.806s0.488-0.323 0.808-0.323h10.701l-2.564-2.564c-0.227-0.228-0.334-0.495-0.323-0.8s0.13-0.571 0.357-0.795c0.226-0.229 0.496-0.342 0.81-0.34s0.585 0.117 0.815 0.344l4.529 4.529c0.221 0.228 0.332 0.494 0.332 0.797s-0.111 0.568-0.332 0.794l-4.496 4.496c-0.222 0.226-0.486 0.335-0.792 0.327s-0.577-0.126-0.812-0.352c-0.218-0.227-0.328-0.497-0.331-0.811s0.112-0.586 0.344-0.813l2.531-2.539z"></path>
</symbol>
<symbol id="icon-menu" viewBox="0 0 32 32">
<path d="M4.936 24.295c-0.321 0-0.59-0.11-0.808-0.329s-0.327-0.493-0.327-0.82c0-0.322 0.109-0.591 0.327-0.807s0.488-0.323 0.808-0.323h22.127c0.321 0 0.591 0.11 0.812 0.329s0.331 0.49 0.331 0.812c0 0.328-0.11 0.599-0.331 0.814s-0.492 0.323-0.812 0.323h-22.127zM4.936 17.136c-0.321 0-0.59-0.11-0.808-0.329s-0.327-0.49-0.327-0.812c0-0.322 0.109-0.591 0.327-0.806s0.488-0.323 0.808-0.323h22.127c0.321 0 0.591 0.11 0.812 0.329s0.331 0.49 0.331 0.812c0 0.322-0.11 0.591-0.331 0.806s-0.492 0.323-0.812 0.323h-22.127zM4.936 9.984c-0.321 0-0.59-0.11-0.808-0.329s-0.327-0.493-0.327-0.82c0-0.322 0.109-0.591 0.327-0.806s0.488-0.323 0.808-0.323h22.127c0.321 0 0.591 0.11 0.812 0.329s0.331 0.49 0.331 0.812c0 0.328-0.11 0.599-0.331 0.815s-0.492 0.323-0.812 0.323h-22.127z"></path>
</symbol>
<symbol id="icon-x" viewBox="0 0 32 32">
<path d="M22.901 5.657h3.68l-8.040 9.037 9.459 12.297h-7.406l-5.801-7.458-6.637 7.458h-3.682l8.6-9.666-9.074-11.668h7.594l5.243 6.817 6.064-6.817zM21.61 24.824h2.039l-13.163-17.115h-2.188l13.312 17.115z"></path>
</symbol>
<symbol id="icon-close" viewBox="0 0 32 32">
  <path d="M8 8 L24 24 M24 8 L8 24" stroke="currentColor" stroke-width="2.5" stroke-linecap="round"/></symbol>
<symbol id="icon-youtube" viewBox="0 0 32 32">
<path d="M28.79 9.604c-0.152-0.563-0.449-1.077-0.861-1.49s-0.925-0.711-1.489-0.864c-2.088-0.573-10.441-0.583-10.441-0.583s-8.352-0.009-10.441 0.539c-0.563 0.16-1.075 0.462-1.487 0.878s-0.711 0.929-0.867 1.493c-0.551 2.088-0.556 6.419-0.556 6.419s-0.005 4.352 0.541 6.419c0.307 1.143 1.207 2.045 2.351 2.353 2.109 0.573 10.44 0.583 10.44 0.583s8.353 0.009 10.441-0.537c0.563-0.153 1.077-0.45 1.49-0.862s0.712-0.925 0.866-1.488c0.552-2.087 0.556-6.416 0.556-6.416s0.027-4.353-0.543-6.441zM13.328 20.007l0.007-8 6.943 4.007-6.949 3.993z"></path>
</symbol>
</defs>
</svg>
